<?xml version="1.0" encoding="UTF-8"?>
<svg version="1.1" xmlns="http://www.w3.org/2000/svg" width="320" height="320">
<path d="M0 0 C3.3 0 6.6 0 10 0 C10 6.6 10 13.2 10 20 C36.4 20 62.8 20 90 20 C90 13.4 90 6.8 90 0 C93.3 0 96.6 0 100 0 C100 6.6 100 13.2 100 20 C103.3 20 106.6 20 110 20 C110 29.9 110 39.8 110 50 C106.7 50 103.4 50 100 50 C100 43.4 100 36.8 100 30 C67 30 34 30 0 30 C0 36.6 0 43.2 0 50 C-3.3 50 -6.6 50 -10 50 C-10 40.1 -10 30.2 -10 20 C-6.7 20 -3.4 20 0 20 C0 13.4 0 6.8 0 0 Z " fill="#FFF" transform="translate(110,80)"/>
<path d="M0 0 C3.3 0 6.6 0 10 0 C10 9.9 10 19.8 10 30 C16.6 30 23.2 30 30 30 C30 23.4 30 16.8 30 10 C33.3 10 36.6 10 40 10 C40 16.6 40 23.2 40 30 C43.3 30 46.6 30 50 30 C50 33.3 50 36.6 50 40 C43.4 40 36.8 40 30 40 C30 46.6 30 53.2 30 60 C20.1 60 10.2 60 0 60 C0 63.3 0 66.6 0 70 C-6.6 70 -13.2 70 -20 70 C-20 66.7 -20 63.4 -20 60 C-16.7 60 -13.4 60 -10 60 C-10 56.7 -10 53.4 -10 50 C-6.7 50 -3.4 50 0 50 C0 33.5 0 17 0 0 Z M10 40 C10 43.3 10 46.6 10 50 C13.3 50 16.6 50 20 50 C20 46.7 20 43.4 20 40 C16.7 40 13.4 40 10 40 Z " fill="#FFF" transform="translate(170,230)"/>
<path d="M0 0 C3.3 0 6.6 0 10 0 C10 19.8 10 39.6 10 60 C0.1 60 -9.8 60 -20 60 C-20 53.4 -20 46.8 -20 40 C-26.6 40 -33.2 40 -40 40 C-40 36.7 -40 33.4 -40 30 C-36.7 30 -33.4 30 -30 30 C-30 23.4 -30 16.8 -30 10 C-26.7 10 -23.4 10 -20 10 C-20 16.6 -20 23.2 -20 30 C-13.4 30 -6.8 30 0 30 C0 20.1 0 10.2 0 0 Z M-10 40 C-10 43.3 -10 46.6 -10 50 C-6.7 50 -3.4 50 0 50 C0 46.7 0 43.4 0 40 C-3.3 40 -6.6 40 -10 40 Z " fill="#FFF" transform="translate(140,230)"/>
<path d="M0 0 C3.3 0 6.6 0 10 0 C10 23.1 10 46.2 10 70 C13.3 70 16.6 70 20 70 C20 73.3 20 76.6 20 80 C13.4 80 6.8 80 0 80 C0 89.9 0 99.8 0 110 C-3.3 110 -6.6 110 -10 110 C-10 96.8 -10 83.6 -10 70 C-6.7 70 -3.4 70 0 70 C0 46.9 0 23.8 0 0 Z " fill="#FFF" transform="translate(220,130)"/>
<path d="M0 0 C3.3 0 6.6 0 10 0 C10 23.1 10 46.2 10 70 C13.3 70 16.6 70 20 70 C20 83.2 20 96.4 20 110 C16.7 110 13.4 110 10 110 C10 100.1 10 90.2 10 80 C3.4 80 -3.2 80 -10 80 C-10 76.7 -10 73.4 -10 70 C-6.7 70 -3.4 70 0 70 C0 46.9 0 23.8 0 0 Z " fill="#FFF" transform="translate(90,130)"/>
<path d="M0 0 C3.3 0 6.6 0 10 0 C10 23.1 10 46.2 10 70 C0.1 70 -9.8 70 -20 70 C-20 66.7 -20 63.4 -20 60 C-13.4 60 -6.8 60 0 60 C0 40.2 0 20.4 0 0 Z " fill="#FFF" transform="translate(260,230)"/>
<path d="M0 0 C3.3 0 6.6 0 10 0 C10 19.8 10 39.6 10 60 C16.6 60 23.2 60 30 60 C30 63.3 30 66.6 30 70 C20.1 70 10.2 70 0 70 C0 46.9 0 23.8 0 0 Z " fill="#FFF" transform="translate(50,230)"/>
<path d="M0 0 C13.2 0 26.4 0 40 0 C40 3.3 40 6.6 40 10 C26.8 10 13.6 10 0 10 C0 6.7 0 3.4 0 0 Z " fill="#FFF" transform="translate(140,190)"/>
<path d="M0 0 C3.3 0 6.6 0 10 0 C10 13.2 10 26.4 10 40 C6.7 40 3.4 40 0 40 C0 26.8 0 13.6 0 0 Z " fill="#FFF" transform="translate(190,140)"/>
<path d="M0 0 C3.3 0 6.6 0 10 0 C10 13.2 10 26.4 10 40 C6.7 40 3.4 40 0 40 C0 26.8 0 13.6 0 0 Z " fill="#FFF" transform="translate(120,140)"/>
<path d="M0 0 C13.2 0 26.4 0 40 0 C40 3.3 40 6.6 40 10 C26.8 10 13.6 10 0 10 C0 6.7 0 3.4 0 0 Z " fill="#FFF" transform="translate(140,120)"/>
<path d="M0 0 C6.6 0 13.2 0 20 0 C20 3.3 20 6.6 20 10 C13.4 10 6.8 10 0 10 C0 6.7 0 3.4 0 0 Z " fill="#FFF" transform="translate(150,220)"/>
<path d="M0 0 C3.3 0 6.6 0 10 0 C10 6.6 10 13.2 10 20 C6.7 20 3.4 20 0 20 C0 13.4 0 6.8 0 0 Z " fill="#FFF" transform="translate(190,60)"/>
<path d="M0 0 C3.3 0 6.6 0 10 0 C10 6.6 10 13.2 10 20 C6.7 20 3.4 20 0 20 C0 13.4 0 6.8 0 0 Z " fill="#FFF" transform="translate(120,60)"/>
<path d="M0 0 C6.6 0 13.2 0 20 0 C20 3.3 20 6.6 20 10 C13.4 10 6.8 10 0 10 C0 6.7 0 3.4 0 0 Z " fill="#FFF" transform="translate(150,30)"/>
<path d="M0 0 C3.3 0 6.6 0 10 0 C10 3.3 10 6.6 10 10 C6.7 10 3.4 10 0 10 C0 6.7 0 3.4 0 0 Z " fill="#FFF" transform="translate(230,280)"/>
<path d="M0 0 C3.3 0 6.6 0 10 0 C10 3.3 10 6.6 10 10 C6.7 10 3.4 10 0 10 C0 6.7 0 3.4 0 0 Z " fill="#FFF" transform="translate(80,280)"/>
<path d="M0 0 C3.3 0 6.6 0 10 0 C10 3.3 10 6.6 10 10 C6.7 10 3.4 10 0 10 C0 6.7 0 3.4 0 0 Z " fill="#FFF" transform="translate(220,270)"/>
<path d="M0 0 C3.3 0 6.6 0 10 0 C10 3.3 10 6.6 10 10 C6.7 10 3.4 10 0 10 C0 6.7 0 3.4 0 0 Z " fill="#FFF" transform="translate(90,270)"/>
<path d="M0 0 C3.3 0 6.6 0 10 0 C10 3.3 10 6.6 10 10 C6.7 10 3.4 10 0 10 C0 6.7 0 3.4 0 0 Z " fill="#FFF" transform="translate(250,220)"/>
<path d="M0 0 C3.3 0 6.6 0 10 0 C10 3.3 10 6.6 10 10 C6.7 10 3.4 10 0 10 C0 6.7 0 3.4 0 0 Z " fill="#FFF" transform="translate(60,220)"/>
<path d="M0 0 C3.3 0 6.6 0 10 0 C10 3.3 10 6.6 10 10 C6.7 10 3.4 10 0 10 C0 6.7 0 3.4 0 0 Z " fill="#FFF" transform="translate(240,210)"/>
<path d="M0 0 C3.3 0 6.6 0 10 0 C10 3.3 10 6.6 10 10 C6.7 10 3.4 10 0 10 C0 6.7 0 3.4 0 0 Z " fill="#FFF" transform="translate(70,210)"/>
<path d="M0 0 C3.3 0 6.6 0 10 0 C10 3.3 10 6.6 10 10 C6.7 10 3.4 10 0 10 C0 6.7 0 3.4 0 0 Z " fill="#FFF" transform="translate(180,180)"/>
<path d="M0 0 C3.3 0 6.6 0 10 0 C10 3.3 10 6.6 10 10 C6.7 10 3.4 10 0 10 C0 6.7 0 3.4 0 0 Z " fill="#FFF" transform="translate(130,180)"/>
<path d="M0 0 C3.3 0 6.6 0 10 0 C10 3.3 10 6.6 10 10 C6.7 10 3.4 10 0 10 C0 6.7 0 3.4 0 0 Z " fill="#FFF" transform="translate(180,130)"/>
<path d="M0 0 C3.3 0 6.6 0 10 0 C10 3.3 10 6.6 10 10 C6.7 10 3.4 10 0 10 C0 6.7 0 3.4 0 0 Z " fill="#FFF" transform="translate(130,130)"/>
<path d="M0 0 C3.3 0 6.6 0 10 0 C10 3.3 10 6.6 10 10 C6.7 10 3.4 10 0 10 C0 6.7 0 3.4 0 0 Z " fill="#FFF" transform="translate(180,50)"/>
<path d="M0 0 C3.3 0 6.6 0 10 0 C10 3.3 10 6.6 10 10 C6.7 10 3.4 10 0 10 C0 6.7 0 3.4 0 0 Z " fill="#FFF" transform="translate(130,50)"/>
<path d="M0 0 C3.3 0 6.6 0 10 0 C10 3.3 10 6.6 10 10 C6.7 10 3.4 10 0 10 C0 6.7 0 3.4 0 0 Z " fill="#FFF" transform="translate(170,40)"/>
<path d="M0 0 C3.3 0 6.6 0 10 0 C10 3.3 10 6.6 10 10 C6.7 10 3.4 10 0 10 C0 6.7 0 3.4 0 0 Z " fill="#FFF" transform="translate(140,40)"/>
</svg>
